<svg xmlns="http://www.w3.org/2000/svg" width="88.105" height="58.195" viewBox="0 0 88.105 58.195">
  <path id="cloud-computing" d="M72.2,26.483a15.647,15.647,0,0,0-3.586.41,14.66,14.66,0,0,0-14.3-11.9,14.377,14.377,0,0,0-3.06.325A22.413,22.413,0,0,0,8.394,28.381,15.879,15.879,0,0,0,15.88,58.265H72.2a15.891,15.891,0,1,0,0-31.782Zm0,28.257H15.88A12.369,12.369,0,0,1,3.524,42.384,12.245,12.245,0,0,1,11.2,30.961a1.761,1.761,0,0,0,1-2.225A18.526,18.526,0,0,1,11.134,22.5a18.882,18.882,0,0,1,37.207-4.58,1.763,1.763,0,0,0,2.315,1.233,10.609,10.609,0,0,1,3.657-.635A11.091,11.091,0,0,1,65.334,29.264a1.762,1.762,0,0,0,2.424,1.589,11.772,11.772,0,0,1,4.445-.845,12.366,12.366,0,1,1,0,24.733Zm0,0" transform="translate(0 -0.07)" fill="#efefef"/>
</svg>
