<svg xmlns="http://www.w3.org/2000/svg" width="63.592" height="43.196" viewBox="0 0 63.592 43.196">
  <g id="Group_79" data-name="Group 79" transform="translate(-305.619 -372.878)">
    <g id="Group_69" data-name="Group 69" transform="translate(307.901 407.042)">
      <path id="Path_27" data-name="Path 27" d="M312.88,403.224h-2.09v5.764h-1.155v-5.764h-2.073v-.939h5.318Z" transform="translate(-307.562 -401.917)" fill="#605c5c"/>
      <path id="Path_28" data-name="Path 28" d="M314.822,408.839a2.314,2.314,0,0,1-1.725-.669,2.431,2.431,0,0,1-.66-1.785v-.137a3,3,0,0,1,.288-1.334,2.186,2.186,0,0,1,.808-.914,2.141,2.141,0,0,1,1.16-.326,1.953,1.953,0,0,1,1.572.649,2.745,2.745,0,0,1,.555,1.837v.452h-3.256a1.5,1.5,0,0,0,.412.976,1.238,1.238,0,0,0,.909.359,1.517,1.517,0,0,0,1.254-.622l.6.575a2.007,2.007,0,0,1-.8.693A2.485,2.485,0,0,1,314.822,408.839Zm-.134-4.267a.942.942,0,0,0-.743.322,1.687,1.687,0,0,0-.362.9h2.132v-.083a1.358,1.358,0,0,0-.3-.849A.938.938,0,0,0,314.688,404.571Z" transform="translate(-306.712 -401.676)" fill="#605c5c"/>
      <path id="Path_29" data-name="Path 29" d="M319.188,407.946a1.014,1.014,0,0,0,.694-.244.826.826,0,0,0,.295-.6h1.054a1.638,1.638,0,0,1-.29.867,1.913,1.913,0,0,1-.736.639,2.2,2.2,0,0,1-1,.234,2.123,2.123,0,0,1-1.658-.676,2.682,2.682,0,0,1-.612-1.869v-.114a2.648,2.648,0,0,1,.607-1.822,2.108,2.108,0,0,1,1.658-.683,2.048,2.048,0,0,1,1.448.518,1.856,1.856,0,0,1,.587,1.36h-1.054a1.018,1.018,0,0,0-.292-.7.937.937,0,0,0-.7-.276.988.988,0,0,0-.838.392,2.019,2.019,0,0,0-.3,1.2v.18a2.045,2.045,0,0,0,.292,1.21A.983.983,0,0,0,319.188,407.946Z" transform="translate(-305.929 -401.676)" fill="#605c5c"/>
      <path id="Path_30" data-name="Path 30" d="M322.619,404.6a1.753,1.753,0,0,1,1.386-.635q1.592,0,1.616,1.819v3.255H324.5v-3.214a.982.982,0,0,0-.224-.729.91.91,0,0,0-.655-.215,1.077,1.077,0,0,0-1,.6v3.559H321.5v-7.071h1.119Z" transform="translate(-305.133 -401.972)" fill="#605c5c"/>
      <path id="Path_31" data-name="Path 31" d="M327.214,403.766l.032.574a1.792,1.792,0,0,1,1.45-.667q1.557,0,1.584,1.781v3.293h-1.118v-3.228a1.032,1.032,0,0,0-.206-.7.868.868,0,0,0-.669-.228,1.077,1.077,0,0,0-1.009.613v3.545h-1.119v-4.981Z" transform="translate(-304.321 -401.676)" fill="#605c5c"/>
      <path id="Path_32" data-name="Path 32" d="M330.661,406.211a2.953,2.953,0,0,1,.29-1.32,2.133,2.133,0,0,1,.816-.9,2.3,2.3,0,0,1,1.206-.315,2.171,2.171,0,0,1,1.636.649,2.555,2.555,0,0,1,.681,1.721l0,.263a2.973,2.973,0,0,1-.283,1.316,2.091,2.091,0,0,1-.81.9,2.321,2.321,0,0,1-1.218.317,2.165,2.165,0,0,1-1.689-.7,2.692,2.692,0,0,1-.633-1.872Zm1.119.1a2,2,0,0,0,.318,1.2,1.108,1.108,0,0,0,1.766-.006,2.23,2.23,0,0,0,.315-1.294,1.993,1.993,0,0,0-.324-1.2,1.038,1.038,0,0,0-.882-.442,1.025,1.025,0,0,0-.87.436A2.173,2.173,0,0,0,331.78,406.307Z" transform="translate(-303.537 -401.676)" fill="#605c5c"/>
      <path id="Path_33" data-name="Path 33" d="M336.792,409.043h-1.119v-7.071h1.119Z" transform="translate(-302.663 -401.972)" fill="#605c5c"/>
      <path id="Path_34" data-name="Path 34" d="M337.686,406.211a2.953,2.953,0,0,1,.29-1.32,2.131,2.131,0,0,1,.815-.9,2.308,2.308,0,0,1,1.206-.315,2.174,2.174,0,0,1,1.637.649,2.554,2.554,0,0,1,.68,1.721l0,.263a2.973,2.973,0,0,1-.283,1.316,2.094,2.094,0,0,1-.811.9,2.319,2.319,0,0,1-1.218.317,2.161,2.161,0,0,1-1.687-.7,2.687,2.687,0,0,1-.633-1.872Zm1.119.1a2.008,2.008,0,0,0,.317,1.2,1.035,1.035,0,0,0,.884.436,1.023,1.023,0,0,0,.882-.442,2.22,2.22,0,0,0,.316-1.294,1.985,1.985,0,0,0-.325-1.2,1.094,1.094,0,0,0-1.752-.006A2.174,2.174,0,0,0,338.805,406.307Z" transform="translate(-302.313 -401.676)" fill="#605c5c"/>
      <path id="Path_35" data-name="Path 35" d="M342.47,406.22a2.908,2.908,0,0,1,.546-1.853,1.748,1.748,0,0,1,1.448-.694,1.642,1.642,0,0,1,1.34.594l.051-.5h1.009v4.829a2.014,2.014,0,0,1-.611,1.549,2.324,2.324,0,0,1-1.646.565,2.662,2.662,0,0,1-1.07-.227,1.909,1.909,0,0,1-.795-.6l.53-.672a1.6,1.6,0,0,0,1.271.612,1.234,1.234,0,0,0,.88-.3,1.158,1.158,0,0,0,.323-.887V408.3a1.648,1.648,0,0,1-1.289.538,1.748,1.748,0,0,1-1.43-.7A3.005,3.005,0,0,1,342.47,406.22Zm1.114.1a2,2,0,0,0,.306,1.181.985.985,0,0,0,.849.43,1.077,1.077,0,0,0,1-.58v-2.191a1.062,1.062,0,0,0-.995-.567.988.988,0,0,0-.858.438A2.243,2.243,0,0,0,343.584,406.316Z" transform="translate(-301.479 -401.676)" fill="#605c5c"/>
      <path id="Path_36" data-name="Path 36" d="M347.393,402.736a.6.6,0,0,1,.162-.432.619.619,0,0,1,.469-.171.625.625,0,0,1,.47.171.6.6,0,0,1,.166.432.585.585,0,0,1-.166.425.628.628,0,0,1-.47.168.622.622,0,0,1-.469-.168A.587.587,0,0,1,347.393,402.736Zm1.187,6.28h-1.119v-4.981h1.119Z" transform="translate(-300.621 -401.944)" fill="#605c5c"/>
      <path id="Path_37" data-name="Path 37" d="M351.864,408.839a2.314,2.314,0,0,1-1.725-.669,2.431,2.431,0,0,1-.66-1.785v-.137a3,3,0,0,1,.288-1.334,2.186,2.186,0,0,1,.808-.914,2.141,2.141,0,0,1,1.16-.326,1.953,1.953,0,0,1,1.572.649,2.745,2.745,0,0,1,.555,1.837v.452h-3.256a1.5,1.5,0,0,0,.412.976,1.237,1.237,0,0,0,.909.359,1.517,1.517,0,0,0,1.254-.622l.6.575a2.007,2.007,0,0,1-.8.693A2.485,2.485,0,0,1,351.864,408.839Zm-.134-4.267a.942.942,0,0,0-.743.322,1.687,1.687,0,0,0-.362.9h2.132v-.083a1.358,1.358,0,0,0-.3-.849A.938.938,0,0,0,351.73,404.571Z" transform="translate(-300.258 -401.676)" fill="#605c5c"/>
      <path id="Path_38" data-name="Path 38" d="M356.977,407.394a.509.509,0,0,0-.247-.457,2.613,2.613,0,0,0-.816-.276,4.244,4.244,0,0,1-.953-.3,1.27,1.27,0,0,1-.837-1.174,1.324,1.324,0,0,1,.543-1.077,2.146,2.146,0,0,1,1.381-.433,2.239,2.239,0,0,1,1.444.443,1.4,1.4,0,0,1,.551,1.145h-1.12a.688.688,0,0,0-.24-.535.912.912,0,0,0-.635-.214.992.992,0,0,0-.6.17.538.538,0,0,0-.234.456.454.454,0,0,0,.217.4,2.963,2.963,0,0,0,.875.288,4.2,4.2,0,0,1,1.033.345,1.482,1.482,0,0,1,.558.481,1.228,1.228,0,0,1,.182.681,1.3,1.3,0,0,1-.558,1.09,2.378,2.378,0,0,1-1.46.416,2.591,2.591,0,0,1-1.092-.22,1.8,1.8,0,0,1-.744-.608,1.44,1.44,0,0,1-.268-.834h1.087a.786.786,0,0,0,.3.611,1.163,1.163,0,0,0,.732.214,1.125,1.125,0,0,0,.672-.168A.521.521,0,0,0,356.977,407.394Z" transform="translate(-299.477 -401.676)" fill="#605c5c"/>
    </g>
    <g id="Group_78" data-name="Group 78" transform="translate(305.619 372.878)">
      <g id="Group_70" data-name="Group 70" transform="translate(38.019)">
        <path id="Path_39" data-name="Path 39" d="M361.764,394.419a1.768,1.768,0,0,1,1.725,2.137,10.621,10.621,0,0,1-3.463,5.905,13.242,13.242,0,0,1-8.965,2.934,11.905,11.905,0,0,1-9.576-4.1Q338,397.2,338,390.05v-1.935a18.939,18.939,0,0,1,1.61-8.043,12.037,12.037,0,0,1,4.6-5.336,14.364,14.364,0,0,1,15.769,1.076,11.3,11.3,0,0,1,3.559,6.26,1.624,1.624,0,0,1-1.571,1.979h-2.907a2.042,2.042,0,0,1-1.97-1.62,5.42,5.42,0,0,0-1.468-2.825,6.315,6.315,0,0,0-4.467-1.381,5.545,5.545,0,0,0-4.88,2.337q-1.619,2.337-1.663,7.25V390.2q0,5.131,1.555,7.5a5.44,5.44,0,0,0,4.9,2.368,6.44,6.44,0,0,0,4.509-1.38,5.361,5.361,0,0,0,1.512-2.89,1.773,1.773,0,0,1,1.736-1.382Z" transform="translate(-337.996 -372.878)" fill="#7bc6b8"/>
      </g>
      <g id="Group_71" data-name="Group 71" transform="translate(20.433 0.434)">
        <path id="Path_40" data-name="Path 40" d="M323.02,401.281V376.863a3.615,3.615,0,0,1,3.616-3.616h6.123a14.8,14.8,0,0,1,7.467,1.88,13.123,13.123,0,0,1,5.141,5.348,16.507,16.507,0,0,1,1.847,7.879v1.456a16.533,16.533,0,0,1-1.817,7.848,12.994,12.994,0,0,1-5.119,5.325,14.872,14.872,0,0,1-7.454,1.913h-6.188A3.615,3.615,0,0,1,323.02,401.281Zm6.521-21.046v17.718a1.7,1.7,0,0,0,1.705,1.705h1.448a7.091,7.091,0,0,0,5.848-2.5q2.02-2.5,2.064-7.152v-1.673q0-4.826-2-7.314a7.059,7.059,0,0,0-5.848-2.489h-1.512A1.7,1.7,0,0,0,329.541,380.235Z" transform="translate(-323.02 -373.248)" fill="#03beff"/>
      </g>
      <g id="Group_72" data-name="Group 72">
        <path id="Path_41" data-name="Path 41" d="M332.573,389.854a19.105,19.105,0,0,1-1.652,8.2,12.458,12.458,0,0,1-4.726,5.434,13.978,13.978,0,0,1-14.076.021,12.549,12.549,0,0,1-4.782-5.4,18.545,18.545,0,0,1-1.718-8.075v-1.565a18.991,18.991,0,0,1,1.685-8.227,12.531,12.531,0,0,1,4.759-5.456,13.951,13.951,0,0,1,14.065,0,12.548,12.548,0,0,1,4.76,5.456,18.955,18.955,0,0,1,1.684,8.206Zm-6.608-1.435q0-4.978-1.784-7.565a6.295,6.295,0,0,0-10.15-.032q-1.781,2.554-1.8,7.488v1.543q0,4.847,1.784,7.521a5.8,5.8,0,0,0,5.13,2.674,5.738,5.738,0,0,0,5.041-2.576q1.761-2.575,1.784-7.509Z" transform="translate(-305.619 -372.878)" fill="#61889b"/>
      </g>
      <g id="Group_77" data-name="Group 77" transform="translate(20.39 2.229)">
        <g id="Group_73" data-name="Group 73" transform="translate(17.586 2.794)">
          <path id="Path_42" data-name="Path 42" d="M344.567,389.139v-1.456a16.511,16.511,0,0,0-1.847-7.88,13.872,13.872,0,0,0-1.858-2.648,13.366,13.366,0,0,0-1.293,2.182,18.935,18.935,0,0,0-1.61,8.041v1.935a17.359,17.359,0,0,0,2.893,10.375,13.492,13.492,0,0,0,1.9-2.7A16.541,16.541,0,0,0,344.567,389.139Z" transform="translate(-337.959 -377.155)" fill="#68aecc"/>
        </g>
        <g id="Group_74" data-name="Group 74" transform="translate(17.586 2.794)" opacity="0.13">
          <path id="Path_43" data-name="Path 43" d="M344.567,389.139v-1.456a16.511,16.511,0,0,0-1.847-7.88,13.872,13.872,0,0,0-1.858-2.648,13.366,13.366,0,0,0-1.293,2.182,18.935,18.935,0,0,0-1.61,8.041v1.935a17.359,17.359,0,0,0,2.893,10.375,13.492,13.492,0,0,0,1.9-2.7A16.541,16.541,0,0,0,344.567,389.139Z" transform="translate(-337.959 -377.155)" fill="#446d6c"/>
        </g>
        <g id="Group_75" data-name="Group 75" opacity="0.65">
          <path id="Path_44" data-name="Path 44" d="M327.851,397.727a19.1,19.1,0,0,0,1.652-8.2v-1.413a18.959,18.959,0,0,0-1.684-8.206,12.6,12.6,0,0,0-4.324-5.137,3.579,3.579,0,0,0-.513,1.83v24.419a3.581,3.581,0,0,0,.527,1.855A12.494,12.494,0,0,0,327.851,397.727Z" transform="translate(-322.983 -374.776)" fill="#39c3ff"/>
        </g>
        <g id="Group_76" data-name="Group 76" opacity="0.52">
          <path id="Path_45" data-name="Path 45" d="M327.851,397.727a19.1,19.1,0,0,0,1.652-8.2v-1.413a18.959,18.959,0,0,0-1.684-8.206,12.6,12.6,0,0,0-4.324-5.137,3.579,3.579,0,0,0-.513,1.83v24.419a3.581,3.581,0,0,0,.527,1.855A12.494,12.494,0,0,0,327.851,397.727Z" transform="translate(-322.983 -374.776)" fill="#123e56"/>
        </g>
      </g>
    </g>
  </g>
</svg>
