<svg xmlns="http://www.w3.org/2000/svg" width="95.305" height="95.351" viewBox="0 0 95.305 95.351">
  <g id="process" transform="translate(-0.115 0.001)">
    <g id="Group_20" data-name="Group 20" transform="translate(0.115 0)">
      <g id="Group_19" data-name="Group 19">
        <path id="Path_8" data-name="Path 8" d="M40.315,17.081l-2.779-1.225c-.126-.467-.263-.908-.415-1.334l1.544-2.659a1.594,1.594,0,0,0,.013-1.575A21.137,21.137,0,0,0,35.969,6.5a1.581,1.581,0,0,0-1.542-.49L31.5,6.68q-.511-.408-1.067-.787L30.154,2.8a1.592,1.592,0,0,0-.917-1.3A20.214,20.214,0,0,0,24.875.036a1.584,1.584,0,0,0-1.533.519L21.3,2.924H20.077L18.037.555A1.581,1.581,0,0,0,16.5.036,20.236,20.236,0,0,0,12.142,1.5a1.593,1.593,0,0,0-.917,1.3l-.283,3.093c-.369.252-.726.515-1.067.787L6.952,6.011a1.58,1.58,0,0,0-1.542.49A21.1,21.1,0,0,0,2.7,10.287a1.594,1.594,0,0,0,.013,1.575l1.544,2.659c-.152.426-.289.868-.415,1.334L1.064,17.081a1.592,1.592,0,0,0-.949,1.457v4.326a1.592,1.592,0,0,0,.949,1.457l2.779,1.225c.126.467.263.908.415,1.334L2.713,29.538A1.594,1.594,0,0,0,2.7,31.113,21.137,21.137,0,0,0,5.409,34.9a1.586,1.586,0,0,0,1.542.49l2.923-.669q.511.408,1.067.787l.283,3.094a1.592,1.592,0,0,0,.917,1.3A20.214,20.214,0,0,0,16.5,41.364a1.587,1.587,0,0,0,1.533-.519l2.04-2.368H21.3l2.04,2.368a1.589,1.589,0,0,0,1.207.553,1.555,1.555,0,0,0,.327-.034A20.236,20.236,0,0,0,29.236,39.9a1.593,1.593,0,0,0,.917-1.3l.283-3.093c.369-.252.726-.515,1.067-.787l2.923.669a1.583,1.583,0,0,0,1.542-.49,21.1,21.1,0,0,0,2.709-3.786,1.594,1.594,0,0,0-.013-1.575l-1.544-2.659c.152-.426.289-.868.415-1.334l2.779-1.225a1.592,1.592,0,0,0,.949-1.457V18.538A1.59,1.59,0,0,0,40.315,17.081Zm-2.236,4.745-2.542,1.121a1.6,1.6,0,0,0-.908,1.1,14.633,14.633,0,0,1-.737,2.362,1.594,1.594,0,0,0,.093,1.409l1.457,2.511a18.054,18.054,0,0,1-1.245,1.74l-2.752-.63a1.578,1.578,0,0,0-1.41.358,14.529,14.529,0,0,1-1.953,1.445,1.59,1.59,0,0,0-.746,1.208l-.267,2.922a17.612,17.612,0,0,1-1.947.661l-1.883-2.186a1.593,1.593,0,0,0-1.207-.553H19.347a1.594,1.594,0,0,0-1.207.553l-1.883,2.186a17.638,17.638,0,0,1-1.948-.661l-.267-2.925A1.594,1.594,0,0,0,13.3,33.24,14.352,14.352,0,0,1,11.344,31.8a1.58,1.58,0,0,0-1.41-.358l-2.752.63a18.088,18.088,0,0,1-1.245-1.74l1.457-2.511a1.594,1.594,0,0,0,.093-1.409,14.634,14.634,0,0,1-.737-2.362,1.594,1.594,0,0,0-.908-1.1L3.3,21.826V19.575l2.542-1.121a1.6,1.6,0,0,0,.908-1.1,14.634,14.634,0,0,1,.737-2.362,1.594,1.594,0,0,0-.093-1.409L5.936,11.071a18.051,18.051,0,0,1,1.245-1.74l2.752.63a1.584,1.584,0,0,0,1.41-.358A14.529,14.529,0,0,1,13.3,8.159a1.59,1.59,0,0,0,.746-1.208l.267-2.922a17.611,17.611,0,0,1,1.947-.661l1.883,2.186a1.593,1.593,0,0,0,1.207.553h2.684a1.594,1.594,0,0,0,1.207-.553l1.883-2.186a17.637,17.637,0,0,1,1.948.661l.267,2.925a1.594,1.594,0,0,0,.746,1.206A14.352,14.352,0,0,1,30.034,9.6a1.583,1.583,0,0,0,1.41.358l2.752-.63a18.053,18.053,0,0,1,1.245,1.74l-1.457,2.511a1.594,1.594,0,0,0-.093,1.409,14.634,14.634,0,0,1,.737,2.362,1.594,1.594,0,0,0,.908,1.1l2.542,1.121v2.252Z" transform="translate(-0.115 -0.001)" fill="#efefef"/>
      </g>
    </g>
    <g id="Group_22" data-name="Group 22" transform="translate(9.544 9.553)">
      <g id="Group_21" data-name="Group 21">
        <path id="Path_9" data-name="Path 9" d="M58.636,48A11.145,11.145,0,1,0,69.782,59.15,11.145,11.145,0,0,0,58.636,48Zm0,19.106A7.961,7.961,0,1,1,66.6,59.15,7.961,7.961,0,0,1,58.636,67.111Z" transform="translate(-47.491 -48.005)" fill="#efefef"/>
      </g>
    </g>
    <g id="Group_24" data-name="Group 24" transform="translate(60.597 -0.001)">
      <g id="Group_23" data-name="Group 23" transform="translate(0 0)">
        <path id="Path_10" data-name="Path 10" d="M337.88,14.255l-2.2-.97c-.086-.308-.179-.6-.278-.891l1.225-2.111a1.6,1.6,0,0,0,.013-1.577,18,18,0,0,0-2.292-3.2,1.581,1.581,0,0,0-1.541-.49l-2.314.529q-.341-.266-.7-.516l-.224-2.454a1.589,1.589,0,0,0-.917-1.3A17.238,17.238,0,0,0,324.96.034a1.582,1.582,0,0,0-1.533.519l-1.62,1.881h-.777L319.409.554a1.58,1.58,0,0,0-1.533-.519,17.23,17.23,0,0,0-3.693,1.239,1.589,1.589,0,0,0-.917,1.3l-.224,2.454q-.359.25-.7.516l-2.314-.529a1.585,1.585,0,0,0-1.541.49,17.875,17.875,0,0,0-2.29,3.2,1.594,1.594,0,0,0,.012,1.575l1.224,2.11q-.149.431-.278.892l-2.2.97a1.591,1.591,0,0,0-.95,1.457v3.6a1.591,1.591,0,0,0,.95,1.457l2.2.97c.086.308.179.6.278.891l-1.225,2.112a1.6,1.6,0,0,0-.013,1.577,17.985,17.985,0,0,0,2.292,3.2,1.583,1.583,0,0,0,1.542.49l2.31-.53c.227.179.462.351.7.518l.224,2.454a1.59,1.59,0,0,0,.917,1.3,17.239,17.239,0,0,0,3.693,1.239,1.586,1.586,0,0,0,1.533-.519l1.62-1.881h.777l1.62,1.881a1.589,1.589,0,0,0,1.207.553,1.555,1.555,0,0,0,.327-.034,17.227,17.227,0,0,0,3.693-1.239,1.589,1.589,0,0,0,.917-1.3L329.795,30q.359-.25.7-.516l2.314.529a1.584,1.584,0,0,0,1.541-.49,18,18,0,0,0,2.292-3.2,1.6,1.6,0,0,0-.013-1.577L335.4,22.635c.1-.288.193-.583.278-.891l2.2-.97a1.591,1.591,0,0,0,.95-1.457v-3.6A1.591,1.591,0,0,0,337.88,14.255Zm-2.234,4.024-1.961.865a1.586,1.586,0,0,0-.91,1.1,11.893,11.893,0,0,1-.6,1.92,1.6,1.6,0,0,0,.093,1.41l1.133,1.953q-.385.6-.83,1.163l-2.133-.488a1.576,1.576,0,0,0-1.407.358,11.783,11.783,0,0,1-1.589,1.174,1.594,1.594,0,0,0-.75,1.21l-.207,2.273c-.427.168-.857.314-1.284.435l-1.458-1.693a1.593,1.593,0,0,0-1.206-.553H320.3a1.594,1.594,0,0,0-1.207.553l-1.458,1.693c-.428-.121-.857-.267-1.284-.435l-.207-2.273a1.594,1.594,0,0,0-.75-1.21,11.684,11.684,0,0,1-1.588-1.174,1.6,1.6,0,0,0-1.41-.359l-2.132.488c-.3-.375-.574-.763-.83-1.162l1.133-1.953a1.6,1.6,0,0,0,.093-1.41,11.9,11.9,0,0,1-.6-1.92,1.587,1.587,0,0,0-.91-1.1l-1.961-.865V16.75l1.961-.865a1.587,1.587,0,0,0,.91-1.1,11.981,11.981,0,0,1,.6-1.923,1.594,1.594,0,0,0-.093-1.409L309.436,9.5c.255-.4.532-.785.829-1.162l2.133.488a1.583,1.583,0,0,0,1.407-.358,11.786,11.786,0,0,1,1.589-1.174,1.594,1.594,0,0,0,.75-1.21l.207-2.273c.428-.168.857-.314,1.284-.435l1.458,1.693a1.593,1.593,0,0,0,1.207.553h2.236a1.593,1.593,0,0,0,1.207-.553L325.2,3.373c.428.121.857.267,1.284.435l.207,2.273a1.593,1.593,0,0,0,.75,1.21,11.784,11.784,0,0,1,1.589,1.174,1.581,1.581,0,0,0,1.407.358l2.133-.488q.445.565.83,1.163l-1.133,1.953a1.6,1.6,0,0,0-.093,1.41,11.9,11.9,0,0,1,.6,1.92,1.587,1.587,0,0,0,.91,1.1l1.961.865Z" transform="translate(-304.007 0.001)" fill="#efefef"/>
      </g>
    </g>
    <g id="Group_26" data-name="Group 26" transform="translate(70.047 9.553)">
      <g id="Group_25" data-name="Group 25">
        <path id="Path_11" data-name="Path 11" d="M359.452,48a7.961,7.961,0,1,0,7.961,7.961A7.961,7.961,0,0,0,359.452,48Zm0,12.738a4.777,4.777,0,1,1,4.777-4.777A4.777,4.777,0,0,1,359.452,60.743Z" transform="translate(-351.491 -48.005)" fill="#efefef"/>
      </g>
    </g>
    <g id="Group_28" data-name="Group 28" transform="translate(47.938 47.947)">
      <g id="Group_27" data-name="Group 27">
        <path id="Path_12" data-name="Path 12" d="M286.54,260.345l-2.308-.485c-.095-.4-.2-.8-.322-1.2l1.77-1.586a1.591,1.591,0,0,0,.4-1.81,23.925,23.925,0,0,0-2.925-5.01,1.6,1.6,0,0,0-1.77-.555l-2.225.731c-.283-.3-.577-.594-.877-.877l.731-2.224a1.592,1.592,0,0,0-.553-1.768,23.829,23.829,0,0,0-5.011-2.928,1.6,1.6,0,0,0-1.81.4l-1.586,1.771c-.4-.121-.8-.228-1.2-.323l-.485-2.307a1.593,1.593,0,0,0-1.558-1.264h-5.429a1.592,1.592,0,0,0-1.558,1.264l-.485,2.307c-.4.095-.8.2-1.2.322l-1.586-1.77a1.6,1.6,0,0,0-1.81-.4,23.927,23.927,0,0,0-5.01,2.925,1.593,1.593,0,0,0-.555,1.77l.731,2.225c-.3.283-.594.577-.877.877l-2.223-.731a1.6,1.6,0,0,0-1.768.553,23.829,23.829,0,0,0-2.928,5.011,1.591,1.591,0,0,0,.4,1.81l1.771,1.586c-.121.4-.228.8-.323,1.2l-2.307.485A1.593,1.593,0,0,0,240.4,261.9v5.43a1.592,1.592,0,0,0,1.264,1.558l2.307.485c.095.4.2.8.322,1.2l-1.77,1.586a1.591,1.591,0,0,0-.4,1.81,23.925,23.925,0,0,0,2.925,5.01,1.6,1.6,0,0,0,1.77.555l2.225-.731c.283.3.577.594.877.877l-.731,2.224a1.592,1.592,0,0,0,.553,1.768,23.829,23.829,0,0,0,5.011,2.928,1.587,1.587,0,0,0,1.81-.4l1.586-1.771c.4.121.8.228,1.2.323l.485,2.307a1.593,1.593,0,0,0,1.558,1.264h5.43a1.592,1.592,0,0,0,1.558-1.264l.485-2.307c.4-.095.8-.2,1.2-.322l1.586,1.77a1.587,1.587,0,0,0,1.81.4,23.927,23.927,0,0,0,5.01-2.925,1.593,1.593,0,0,0,.555-1.77l-.731-2.225c.3-.283.594-.577.877-.877l2.224.731a1.6,1.6,0,0,0,1.768-.553,23.827,23.827,0,0,0,2.928-5.011,1.591,1.591,0,0,0-.4-1.81l-1.771-1.586c.121-.4.228-.8.323-1.2l2.307-.485a1.593,1.593,0,0,0,1.264-1.558V261.9A1.593,1.593,0,0,0,286.54,260.345Zm-1.92,5.7-2.06.434a1.592,1.592,0,0,0-1.239,1.275,17.321,17.321,0,0,1-.748,2.776,1.591,1.591,0,0,0,.437,1.724l1.67,1.5a20.919,20.919,0,0,1-1.407,2.4l-2.1-.692a1.6,1.6,0,0,0-1.713.484,17.389,17.389,0,0,1-2.037,2.038,1.6,1.6,0,0,0-.482,1.712l.692,2.1a20.8,20.8,0,0,1-2.4,1.407l-1.5-1.67a1.6,1.6,0,0,0-1.726-.437,17.145,17.145,0,0,1-2.772.748,1.592,1.592,0,0,0-1.275,1.239l-.434,2.06h-2.845l-.434-2.06a1.592,1.592,0,0,0-1.275-1.239,17.316,17.316,0,0,1-2.776-.748h0a1.6,1.6,0,0,0-1.724.437l-1.5,1.67a20.919,20.919,0,0,1-2.4-1.407l.692-2.1a1.6,1.6,0,0,0-.484-1.713,17.387,17.387,0,0,1-2.038-2.037,1.6,1.6,0,0,0-1.712-.482l-2.1.692a20.787,20.787,0,0,1-1.407-2.4l1.67-1.5a1.593,1.593,0,0,0,.437-1.726,17.148,17.148,0,0,1-.748-2.772,1.592,1.592,0,0,0-1.239-1.275l-2.06-.434V263.2l2.06-.434a1.592,1.592,0,0,0,1.239-1.275,17.319,17.319,0,0,1,.748-2.776,1.591,1.591,0,0,0-.437-1.724l-1.67-1.5a20.923,20.923,0,0,1,1.407-2.4l2.1.692a1.6,1.6,0,0,0,1.713-.484,17.386,17.386,0,0,1,2.037-2.038,1.6,1.6,0,0,0,.482-1.712l-.692-2.1a20.79,20.79,0,0,1,2.4-1.407l1.5,1.67a1.6,1.6,0,0,0,1.726.437,17.145,17.145,0,0,1,2.772-.748,1.592,1.592,0,0,0,1.275-1.239l.434-2.06h2.845l.434,2.06a1.592,1.592,0,0,0,1.275,1.239,17.309,17.309,0,0,1,2.775.748,1.594,1.594,0,0,0,1.724-.437l1.5-1.67a20.918,20.918,0,0,1,2.4,1.407l-.692,2.1a1.6,1.6,0,0,0,.484,1.713,17.389,17.389,0,0,1,2.038,2.037,1.606,1.606,0,0,0,1.712.482l2.1-.692a20.787,20.787,0,0,1,1.407,2.4l-1.67,1.5a1.593,1.593,0,0,0-.437,1.726,17.148,17.148,0,0,1,.748,2.772,1.592,1.592,0,0,0,1.239,1.275l2.06.434Z" transform="translate(-240.402 -240.916)" fill="#efefef"/>
      </g>
    </g>
    <g id="Group_30" data-name="Group 30" transform="translate(57.31 57.319)">
      <g id="Group_29" data-name="Group 29">
        <path id="Path_13" data-name="Path 13" d="M301.821,288.005a14.33,14.33,0,1,0,14.33,14.33A14.33,14.33,0,0,0,301.821,288.005Zm0,25.475a11.145,11.145,0,1,1,11.145-11.145A11.159,11.159,0,0,1,301.821,313.48Z" transform="translate(-287.491 -288.005)" fill="#efefef"/>
      </g>
    </g>
    <g id="Group_32" data-name="Group 32" transform="translate(44.572 17.514)">
      <g id="Group_31" data-name="Group 31">
        <rect id="Rectangle_7" data-name="Rectangle 7" width="12.738" height="3.184" fill="#efefef"/>
      </g>
    </g>
    <g id="Group_34" data-name="Group 34" transform="translate(7.952 42.989)">
      <g id="Group_33" data-name="Group 33">
        <path id="Path_14" data-name="Path 14" d="M75.983,242.446a1.591,1.591,0,0,0-.837-.837h0L64,236.832a1.591,1.591,0,0,0-2.219,1.463v3.184H42.675V216H39.491v27.067a1.591,1.591,0,0,0,1.59,1.592h20.7v3.184a1.591,1.591,0,0,0,1.59,1.592h0a1.569,1.569,0,0,0,.627-.129l11.145-4.777A1.591,1.591,0,0,0,75.983,242.446Zm-11.017,2.988V240.71l5.511,2.362Z" transform="translate(-39.491 -216.004)" fill="#efefef"/>
      </g>
    </g>
    <g id="Group_36" data-name="Group 36" transform="translate(64.145 65.852)">
      <g id="Group_35" data-name="Group 35">
        <path id="Path_15" data-name="Path 15" d="M334.474,330.88l-6.845,8.214-3.544-3.543-2.251,2.251,4.777,4.777a1.587,1.587,0,0,0,1.126.467c.023,0,.048,0,.071,0a1.594,1.594,0,0,0,1.152-.571l7.961-9.553Z" transform="translate(-321.834 -330.88)" fill="#efefef"/>
      </g>
    </g>
  </g>
</svg>
